<svg xmlns="http://www.w3.org/2000/svg" width="296.96" height="80" viewBox="0 0 296.96 100"><path d="M68.272,43.826c-2.505.58-11.76,4.221-17.442,3.549-6.912-1.183-8.42-3.27-9.046-5.59a4.825,4.825,0,0,1,1.438-5.265C45.1,34.9,63.216,19.564,65.071,17.778a22.174,22.174,0,0,0,5.8-9.556c.232-.789-.186-.974-1.09-.441-6.819,3.989-36.694,21.548-40.8,24.911-2.853,2.319-6.4,5.915-6.518,9.023-2.667-.116-9.278-.186-12.85,1.67a11.876,11.876,0,0,0-4.221,3.479c-2.876.3-3.85.6-4.639,1.368s-1,1.368-.533,1.508a13.523,13.523,0,0,1,4.453,2.041h0A9,9,0,0,0,8.244,55.7a55.969,55.969,0,0,0,11.737,6.263,3.85,3.85,0,0,0,0,4.407c1.948,3.015,26.442,28.089,31.29,33.168.557.58.951.58,1,0a14.682,14.682,0,0,0-1.392-7.561C48.765,87.733,40.23,74.419,38.838,72.17A12.873,12.873,0,0,1,37.261,67.3c-.162-1.206-.186-3.41,2.319-3.665a26.488,26.488,0,0,0,9.394-2.876,32.7,32.7,0,0,1,12.084-3.6,47.944,47.944,0,0,0,7.863-.742,3.781,3.781,0,0,0,2.319-1.113c.441-.533.162-1-.3-1-2.2,0-8.42-.139-8.628-2.783,0-3.131,6.68-5.5,9.278-6.355.7-.209.881-.51.464-.742a5.59,5.59,0,0,0-3.781-.6ZM9.891,49.392a1.438,1.438,0,1,1,1.577-1.253,1.415,1.415,0,0,1-1.577,1.253ZM35.08,61.639l-10.507-1.3s-1.183-.3-.7-.812a10.67,10.67,0,0,0,3.062-6.75,9,9,0,0,0-1.6-7.33c-.487-.742.6-.626.6-.626l10.971,1.3c6.726.789,11.783,4.917,11.273,9.278s-6.4,7.028-13.105,6.239ZM296.416,11.191c-.835-.6-1.972,0-2.923,1a130.656,130.656,0,0,1-18.277,12.688A36.764,36.764,0,0,1,258.1,29.909a12.85,12.85,0,0,1-3.758-.626,34.791,34.791,0,0,0,4.639-3.363c2.946-2.551,5.126-6.564,2.969-9.278-1.322-1.763-4.523-2.714-9.046.394s-6.239,6.75-5.219,10.229a6.4,6.4,0,0,0,.7,1.577,43.028,43.028,0,0,1-6.958,2.528c-7.283,1.879-11.6.673-14.2-1.067,4.314-2.876,8.35-6.425,8.744-9.6a4.384,4.384,0,0,0-2.319-4.43c-2.83-1.74-6.216-.765-8.86,2.551a11.76,11.76,0,0,0-2.319,10.786,39.826,39.826,0,0,1-6.518,3.294c-3.618,1.137-10.925.951-14.821-1.786a21.618,21.618,0,0,0,7.19-5.358,6.471,6.471,0,0,0,.673-7.863,4.407,4.407,0,0,0-4.824-2.319c-4.036.858-8.141,6.958-8.559,9.811a8.535,8.535,0,0,0,.464,4.43c-7.353,2.876-16.236,4.291-19.878,3.131-.209,0-.951-.325-.951-.649,0-.9,2.2-2.319,3.688-3.2,2.319-1.415,4.639-2.876,4.894-5.172a4.268,4.268,0,0,0-1.624-3.572,6.587,6.587,0,0,0-4.221-1.577c-1.67-.186-1.879-.186-2.111-1.276a6.564,6.564,0,0,1,1.044-3.039c.348-.7,2.319-3.549,1.021-4.453s-2.853.881-2.853.881C166.9,20,160.262,26.87,149.57,32.391q-4.987,2.575-10.368,4.894L149.593,7.271a15.333,15.333,0,0,1,1.021-2.6c.325-.626.7-.9,1.113-.812a.858.858,0,0,1,.673.719,6.263,6.263,0,0,1,.139,1.74,24.331,24.331,0,0,0,.209,4.221,1.624,1.624,0,0,0,1.3,1.508c.673.139,1.322-.255,1.925-1.113a7.979,7.979,0,0,0,1.3-3.294,8.744,8.744,0,0,0,0-3.734A5.52,5.52,0,0,0,155.9,1.356a3.943,3.943,0,0,0-2.18-1.322A6.448,6.448,0,0,0,147.6,2.678a29.875,29.875,0,0,0-4.778,7.793q-1.948,4.5-3.99,10.577l-6.587,19a228.864,228.864,0,0,1-54.6,12.734,1.6,1.6,0,1,0,.186,3.2h.186A234.592,234.592,0,0,0,130.9,44.1l-8.559,24.633a66.244,66.244,0,0,1-3.015,7.677c-.835,1.647-1.647,2.319-2.459,2.319s-1.09-1.276-.812-3.363a17.3,17.3,0,0,0,.139-3.989,1.879,1.879,0,0,0-1.624-1.856,2.319,2.319,0,0,0-2.319,1.253,8.466,8.466,0,0,0-1.345,3.479,9.278,9.278,0,0,0,.464,5.312,4.639,4.639,0,0,0,3.642,2.946,7.074,7.074,0,0,0,6.8-3.108,38.2,38.2,0,0,0,5.52-9.417c1.577-3.734,3.526-8.93,5.822-15.54l4.639-13.105q6.958-2.807,13.291-6.1A76.844,76.844,0,0,0,172.764,18.2h0a4.639,4.639,0,0,0,4.848,3.688,3.549,3.549,0,0,1,2.319.719c.51.487.649.812.626.9,0,.719-2.157,1.995-3.41,2.783-2.482,1.531-5.288,3.27-5.2,6.031a3.92,3.92,0,0,0,3.154,3.6c4.755,1.554,14.705-.139,22.708-3.456l.58.51c4.639,4.082,13.917,4.291,18.556,2.853A53.138,53.138,0,0,0,224.442,32c4.082,3.5,10.229,4.314,17.86,2.319a45.206,45.206,0,0,0,8.675-3.224,13.731,13.731,0,0,0,7.144,1.948c6.958.162,13.012-2.551,18.556-5.358,0,0,14.543-8.188,19.739-13.917a1.856,1.856,0,0,0,0-2.575ZM198.719,25.8c.255-1.763,3.618-6.611,6.031-7.121h.325c.325,0,.719.162,1.137.858a3.27,3.27,0,0,1-.487,4.2,19.2,19.2,0,0,1-6.773,4.825,5.265,5.265,0,0,1-.232-2.76Zm28.622-5.08a5.033,5.033,0,0,1,3.34-2.134,2.319,2.319,0,0,1,1.253.371c.951.58.881,1.044.858,1.3-.255,2.064-3.781,5.01-7.631,7.538a9.463,9.463,0,0,1,2.18-7.074Zm23.589,5.544c-.626-2.088.858-4.639,3.92-6.68a7.144,7.144,0,0,1,3.688-1.461,1.253,1.253,0,0,1,1.044.371c.51.673,0,2.737-2.551,4.987a32.934,32.934,0,0,1-5.613,3.8,3.433,3.433,0,0,1-.557-1.021Z" transform="translate(0.025 0.026)" fill="#3c6eb0"/></svg>